<mxfile host="app.diagrams.net" modified="2024-06-19T01:40:35.208Z" agent="Mozilla/5.0 (Windows NT 10.0; Win64; x64) AppleWebKit/537.36 (KHTML, like Gecko) Chrome/126.0.0.0 Safari/537.36 Edg/126.0.0.0" etag="LhbO6izGzMfDpu9wo9fL" version="24.5.5" type="github">
  <diagram name="Page-1" id="hJIKlYoYh9tqUhOvAnFu">
    <mxGraphModel dx="328" dy="428" grid="1" gridSize="10" guides="1" tooltips="1" connect="1" arrows="1" fold="1" page="1" pageScale="1" pageWidth="850" pageHeight="1100" math="0" shadow="0">
      <root>
        <mxCell id="0" />
        <mxCell id="1" parent="0" />
        <mxCell id="zQOek3tgbETVmvYBOYxM-1" value="&lt;font style=&quot;font-size: 24px;&quot;&gt;Keyboard Decoder (UART Rx)&lt;/font&gt;" style="text;html=1;align=center;verticalAlign=middle;resizable=0;points=[];autosize=1;strokeColor=none;fillColor=none;" vertex="1" parent="1">
          <mxGeometry x="235" y="20" width="350" height="40" as="geometry" />
        </mxCell>
        <mxCell id="zQOek3tgbETVmvYBOYxM-20" style="edgeStyle=orthogonalEdgeStyle;rounded=0;orthogonalLoop=1;jettySize=auto;html=1;exitX=1;exitY=0.25;exitDx=0;exitDy=0;entryX=0.001;entryY=0.479;entryDx=0;entryDy=0;entryPerimeter=0;" edge="1" parent="1" source="zQOek3tgbETVmvYBOYxM-2" target="zQOek3tgbETVmvYBOYxM-17">
          <mxGeometry relative="1" as="geometry" />
        </mxCell>
        <mxCell id="zQOek3tgbETVmvYBOYxM-2" value="&lt;b&gt;UART Rx&lt;/b&gt;&lt;div&gt;&lt;b&gt;always @ (posedge clk, negedge nrst)&lt;/b&gt;&lt;/div&gt;&lt;div&gt;&lt;b&gt;if (~nrst)&lt;/b&gt;&lt;/div&gt;&lt;div&gt;clk_count = 0&lt;/div&gt;&lt;div&gt;bit_count = 0&lt;/div&gt;&lt;div&gt;shift = 0&lt;/div&gt;&lt;div&gt;recieving = 0&lt;/div&gt;&lt;div&gt;ready = 0&lt;/div&gt;&lt;div&gt;&lt;b&gt;else&lt;/b&gt;&lt;/div&gt;&lt;div&gt;&lt;b&gt;&amp;nbsp; &amp;nbsp; &amp;nbsp; &amp;nbsp; if (~recieving)&lt;/b&gt;&lt;/div&gt;&lt;div&gt;&lt;b&gt;&lt;span style=&quot;white-space: pre;&quot;&gt;&#x9;&lt;/span&gt;if (Rx == 0)&lt;/b&gt;&lt;/div&gt;&lt;div&gt;&lt;span style=&quot;white-space: pre;&quot;&gt;&lt;span style=&quot;white-space: pre;&quot;&gt;&#x9;&lt;/span&gt;&#x9;&lt;/span&gt;recieving = 1&lt;/div&gt;&lt;div&gt;&lt;span style=&quot;white-space: pre;&quot;&gt;&lt;span style=&quot;white-space: pre;&quot;&gt;&#x9;&lt;/span&gt;&#x9;&lt;/span&gt;clk_count = 0&lt;/div&gt;&lt;div&gt;&lt;span style=&quot;white-space: pre;&quot;&gt;&lt;span style=&quot;white-space: pre;&quot;&gt;&#x9;&lt;/span&gt;&#x9;&lt;/span&gt;bit_count = 0&lt;/div&gt;&lt;div&gt;&lt;b&gt;else begin&lt;/b&gt;&lt;/div&gt;&lt;div&gt;clk_count ++&lt;/div&gt;&lt;div&gt;&lt;b&gt;if(clk_count == BAUD_RATE - 1)&lt;/b&gt;&lt;/div&gt;&lt;div&gt;clk_count = 0&lt;/div&gt;&lt;div&gt;bit_count ++&lt;/div&gt;&lt;div&gt;&lt;b&gt;if (bit_count == 0)&lt;/b&gt;&lt;/div&gt;&lt;div&gt;// start bit signal&lt;/div&gt;&lt;div&gt;&lt;b&gt;else if(bit_count &amp;lt; 9)&lt;/b&gt;&lt;/div&gt;&lt;div&gt;shift = {Rx, shift[7:1]}&lt;/div&gt;&lt;div&gt;&lt;b&gt;else&lt;/b&gt;&lt;/div&gt;&lt;div&gt;recieving = 0&lt;/div&gt;&lt;div&gt;data_in = shift&lt;/div&gt;&lt;div&gt;ready = 1&lt;/div&gt;&lt;div&gt;&lt;b&gt;end&lt;/b&gt;&lt;/div&gt;" style="whiteSpace=wrap;html=1;" vertex="1" parent="1">
          <mxGeometry x="120" y="120" width="200" height="440" as="geometry" />
        </mxCell>
        <mxCell id="zQOek3tgbETVmvYBOYxM-3" value="" style="endArrow=classic;html=1;rounded=0;" edge="1" parent="1">
          <mxGeometry width="50" height="50" relative="1" as="geometry">
            <mxPoint x="40" y="240" as="sourcePoint" />
            <mxPoint x="120" y="240" as="targetPoint" />
          </mxGeometry>
        </mxCell>
        <mxCell id="zQOek3tgbETVmvYBOYxM-14" value="Rx" style="text;html=1;align=center;verticalAlign=middle;resizable=0;points=[];autosize=1;strokeColor=none;fillColor=none;" vertex="1" parent="1">
          <mxGeometry x="50" y="210" width="40" height="30" as="geometry" />
        </mxCell>
        <mxCell id="zQOek3tgbETVmvYBOYxM-15" value="Memory" style="whiteSpace=wrap;html=1;" vertex="1" parent="1">
          <mxGeometry x="640" y="120" width="160" height="240" as="geometry" />
        </mxCell>
        <mxCell id="zQOek3tgbETVmvYBOYxM-17" value="&lt;b&gt;Parallel Data Transfer&lt;/b&gt;&lt;div&gt;&lt;b&gt;always @ (posedge clk, negedge nrst)&lt;/b&gt;&lt;/div&gt;&lt;div&gt;&lt;b&gt;if (~nrst)&lt;/b&gt;&lt;/div&gt;&lt;div&gt;data = 0&lt;/div&gt;&lt;div&gt;ready = 0&lt;/div&gt;&lt;div&gt;&lt;b&gt;if(ready)&lt;/b&gt;&lt;/div&gt;&lt;div&gt;data_mem = data_in&lt;/div&gt;&lt;div&gt;ready = 0&lt;/div&gt;" style="whiteSpace=wrap;html=1;" vertex="1" parent="1">
          <mxGeometry x="400" y="120" width="160" height="230" as="geometry" />
        </mxCell>
        <mxCell id="zQOek3tgbETVmvYBOYxM-19" value="data_in" style="text;html=1;align=center;verticalAlign=middle;resizable=0;points=[];autosize=1;strokeColor=none;fillColor=none;" vertex="1" parent="1">
          <mxGeometry x="325" y="190" width="60" height="30" as="geometry" />
        </mxCell>
        <mxCell id="zQOek3tgbETVmvYBOYxM-21" value="" style="endArrow=none;html=1;rounded=0;" edge="1" parent="1">
          <mxGeometry width="50" height="50" relative="1" as="geometry">
            <mxPoint x="350" y="240" as="sourcePoint" />
            <mxPoint x="370" y="220" as="targetPoint" />
          </mxGeometry>
        </mxCell>
        <mxCell id="zQOek3tgbETVmvYBOYxM-22" value="8" style="text;html=1;align=center;verticalAlign=middle;resizable=0;points=[];autosize=1;strokeColor=none;fillColor=none;" vertex="1" parent="1">
          <mxGeometry x="350" y="230" width="30" height="30" as="geometry" />
        </mxCell>
        <mxCell id="zQOek3tgbETVmvYBOYxM-26" value="" style="edgeStyle=none;orthogonalLoop=1;jettySize=auto;html=1;endArrow=classic;startArrow=classic;endSize=8;startSize=8;rounded=0;" edge="1" parent="1">
          <mxGeometry width="100" relative="1" as="geometry">
            <mxPoint x="320" y="300" as="sourcePoint" />
            <mxPoint x="400" y="300" as="targetPoint" />
            <Array as="points" />
          </mxGeometry>
        </mxCell>
        <mxCell id="zQOek3tgbETVmvYBOYxM-27" value="&lt;div&gt;&lt;br&gt;&lt;/div&gt;ready" style="text;html=1;align=center;verticalAlign=middle;resizable=0;points=[];autosize=1;strokeColor=none;fillColor=none;" vertex="1" parent="1">
          <mxGeometry x="335" y="263" width="50" height="40" as="geometry" />
        </mxCell>
        <mxCell id="zQOek3tgbETVmvYBOYxM-32" style="edgeStyle=orthogonalEdgeStyle;rounded=0;orthogonalLoop=1;jettySize=auto;html=1;exitX=1;exitY=0.25;exitDx=0;exitDy=0;entryX=0.001;entryY=0.479;entryDx=0;entryDy=0;entryPerimeter=0;" edge="1" parent="1">
          <mxGeometry relative="1" as="geometry">
            <mxPoint x="560" y="230" as="sourcePoint" />
            <mxPoint x="640" y="230" as="targetPoint" />
          </mxGeometry>
        </mxCell>
        <mxCell id="zQOek3tgbETVmvYBOYxM-33" value="data_mem" style="text;html=1;align=center;verticalAlign=middle;resizable=0;points=[];autosize=1;strokeColor=none;fillColor=none;" vertex="1" parent="1">
          <mxGeometry x="555" y="190" width="80" height="30" as="geometry" />
        </mxCell>
        <mxCell id="zQOek3tgbETVmvYBOYxM-34" value="" style="endArrow=none;html=1;rounded=0;" edge="1" parent="1">
          <mxGeometry width="50" height="50" relative="1" as="geometry">
            <mxPoint x="590" y="240" as="sourcePoint" />
            <mxPoint x="610" y="220" as="targetPoint" />
          </mxGeometry>
        </mxCell>
        <mxCell id="zQOek3tgbETVmvYBOYxM-35" value="8" style="text;html=1;align=center;verticalAlign=middle;resizable=0;points=[];autosize=1;strokeColor=none;fillColor=none;" vertex="1" parent="1">
          <mxGeometry x="590" y="230" width="30" height="30" as="geometry" />
        </mxCell>
      </root>
    </mxGraphModel>
  </diagram>
</mxfile>
